<svg width="70" height="86" viewBox="0 0 70 86" fill="none" xmlns="http://www.w3.org/2000/svg">
<path d="M8 7.16666C8 3.20862 11.0843 0 14.8889 0H39.856C41.5247 0 43.1366 0.630081 44.3924 1.7732L67.6475 22.9419C69.1425 24.3027 70 26.2687 70 28.3353V78.8333C70 82.7914 66.9157 86 63.1111 86H14.8889C11.0843 86 8 82.7914 8 78.8333V7.16666Z" fill="#50C029"/>
<g filter="url(#filter0_d_688_14399)">
<rect x="2" y="49" width="57" height="26" rx="4" fill="#F2FFEE"/>
</g>
<path d="M26.875 64.2969H28.8281C28.7656 65.0417 28.5573 65.7057 28.2031 66.2891C27.849 66.8672 27.3516 67.3229 26.7109 67.6562C26.0703 67.9896 25.2917 68.1562 24.375 68.1562C23.6719 68.1562 23.0391 68.0312 22.4766 67.7812C21.9141 67.526 21.4323 67.1667 21.0312 66.7031C20.6302 66.2344 20.3229 65.6693 20.1094 65.0078C19.901 64.3464 19.7969 63.6068 19.7969 62.7891V61.8438C19.7969 61.026 19.9036 60.2865 20.1172 59.625C20.3359 58.9635 20.6484 58.3984 21.0547 57.9297C21.4609 57.4557 21.9479 57.0938 22.5156 56.8438C23.0885 56.5938 23.7318 56.4688 24.4453 56.4688C25.3516 56.4688 26.1172 56.6354 26.7422 56.9688C27.3672 57.3021 27.8516 57.763 28.1953 58.3516C28.5443 58.9401 28.7578 59.6146 28.8359 60.375H26.8828C26.8307 59.8854 26.7161 59.4661 26.5391 59.1172C26.3672 58.7682 26.112 58.5026 25.7734 58.3203C25.4349 58.1328 24.9922 58.0391 24.4453 58.0391C23.9974 58.0391 23.6068 58.1224 23.2734 58.2891C22.9401 58.4557 22.6615 58.7005 22.4375 59.0234C22.2135 59.3464 22.0443 59.7448 21.9297 60.2188C21.8203 60.6875 21.7656 61.224 21.7656 61.8281V62.7891C21.7656 63.362 21.8151 63.8828 21.9141 64.3516C22.0182 64.8151 22.1745 65.2135 22.3828 65.5469C22.5964 65.8802 22.8672 66.138 23.1953 66.3203C23.5234 66.5026 23.9167 66.5938 24.375 66.5938C24.9323 66.5938 25.3828 66.5052 25.7266 66.3281C26.0755 66.151 26.3385 65.8932 26.5156 65.5547C26.6979 65.2109 26.8177 64.7917 26.875 64.2969ZM36.5938 65.0703C36.5938 64.8359 36.5573 64.6276 36.4844 64.4453C36.4167 64.263 36.2943 64.0964 36.1172 63.9453C35.9401 63.7943 35.6901 63.6484 35.3672 63.5078C35.0495 63.362 34.6432 63.2135 34.1484 63.0625C33.6068 62.8958 33.1068 62.7109 32.6484 62.5078C32.1953 62.2995 31.7995 62.0599 31.4609 61.7891C31.1224 61.513 30.8594 61.1979 30.6719 60.8438C30.4844 60.4844 30.3906 60.0703 30.3906 59.6016C30.3906 59.138 30.487 58.7161 30.6797 58.3359C30.8776 57.9557 31.1562 57.6276 31.5156 57.3516C31.8802 57.0703 32.3099 56.8542 32.8047 56.7031C33.2995 56.5469 33.8464 56.4688 34.4453 56.4688C35.2891 56.4688 36.0156 56.625 36.625 56.9375C37.2396 57.25 37.7109 57.6693 38.0391 58.1953C38.3724 58.7214 38.5391 59.3021 38.5391 59.9375H36.5938C36.5938 59.5625 36.513 59.2318 36.3516 58.9453C36.1953 58.6536 35.9557 58.4245 35.6328 58.2578C35.3151 58.0911 34.9115 58.0078 34.4219 58.0078C33.9583 58.0078 33.5729 58.0781 33.2656 58.2188C32.9583 58.3594 32.7292 58.5495 32.5781 58.7891C32.4271 59.0286 32.3516 59.2995 32.3516 59.6016C32.3516 59.8151 32.401 60.0104 32.5 60.1875C32.599 60.3594 32.75 60.5208 32.9531 60.6719C33.1562 60.8177 33.4115 60.9557 33.7188 61.0859C34.026 61.2161 34.388 61.3411 34.8047 61.4609C35.4349 61.6484 35.9844 61.8568 36.4531 62.0859C36.9219 62.3099 37.3125 62.5651 37.625 62.8516C37.9375 63.138 38.1719 63.4635 38.3281 63.8281C38.4844 64.1875 38.5625 64.5964 38.5625 65.0547C38.5625 65.5339 38.4661 65.9661 38.2734 66.3516C38.0807 66.7318 37.8047 67.0573 37.4453 67.3281C37.0911 67.5938 36.6641 67.7995 36.1641 67.9453C35.6693 68.0859 35.1172 68.1562 34.5078 68.1562C33.9609 68.1562 33.4219 68.0833 32.8906 67.9375C32.3646 67.7917 31.8854 67.5703 31.4531 67.2734C31.0208 66.9714 30.6771 66.5964 30.4219 66.1484C30.1667 65.6953 30.0391 65.1667 30.0391 64.5625H32C32 64.9323 32.0625 65.2474 32.1875 65.5078C32.3177 65.7682 32.4974 65.9818 32.7266 66.1484C32.9557 66.3099 33.2214 66.4297 33.5234 66.5078C33.8307 66.5859 34.1589 66.625 34.5078 66.625C34.9661 66.625 35.349 66.5599 35.6562 66.4297C35.9688 66.2995 36.2031 66.1172 36.3594 65.8828C36.5156 65.6484 36.5938 65.3776 36.5938 65.0703ZM44.1953 65.9219L47.1875 56.625H49.3516L45.2734 68H43.8125L44.1953 65.9219ZM41.4297 56.625L44.3984 65.9219L44.8047 68H43.3359L39.2734 56.625H41.4297Z" fill="#50C029"/>
<path fill-rule="evenodd" clip-rule="evenodd" d="M40 0.00195312V22.0004C40 24.2095 41.7909 26.0004 44 26.0004H69.624C69.2368 24.8318 68.5612 23.774 67.6475 22.9423L44.3924 1.77359C43.1728 0.663377 41.6172 0.0370902 40 0.00195312Z" fill="black" fill-opacity="0.24"/>
<defs>
<filter id="filter0_d_688_14399" x="0" y="47" width="65" height="34" filterUnits="userSpaceOnUse" color-interpolation-filters="sRGB">
<feFlood flood-opacity="0" result="BackgroundImageFix"/>
<feColorMatrix in="SourceAlpha" type="matrix" values="0 0 0 0 0 0 0 0 0 0 0 0 0 0 0 0 0 0 127 0" result="hardAlpha"/>
<feOffset dx="2" dy="2"/>
<feGaussianBlur stdDeviation="2"/>
<feComposite in2="hardAlpha" operator="out"/>
<feColorMatrix type="matrix" values="0 0 0 0 0 0 0 0 0 0 0 0 0 0 0 0 0 0 0.25 0"/>
<feBlend mode="normal" in2="BackgroundImageFix" result="effect1_dropShadow_688_14399"/>
<feBlend mode="normal" in="SourceGraphic" in2="effect1_dropShadow_688_14399" result="shape"/>
</filter>
</defs>
</svg>
