<svg width="70" height="86" viewBox="0 0 70 86" fill="none" xmlns="http://www.w3.org/2000/svg">
<path d="M8 7.16666C8 3.20862 11.0843 0 14.8889 0H39.856C41.5247 0 43.1366 0.630081 44.3924 1.7732L67.6475 22.9419C69.1425 24.3027 70 26.2687 70 28.3353V78.8333C70 82.7914 66.9157 86 63.1111 86H14.8889C11.0843 86 8 82.7914 8 78.8333V7.16666Z" fill="#288DEB"/>
<g filter="url(#filter0_d_688_14398)">
<rect x="2" y="49" width="57" height="26" rx="4" fill="#EDF4FA"/>
</g>
<path d="M23.4609 68H21.0312L21.0469 66.4453H23.4609C24.1641 66.4453 24.7526 66.2917 25.2266 65.9844C25.7057 65.6771 26.0651 65.237 26.3047 64.6641C26.5495 64.0911 26.6719 63.4089 26.6719 62.6172V62C26.6719 61.3854 26.6016 60.8411 26.4609 60.3672C26.3255 59.8932 26.1224 59.4948 25.8516 59.1719C25.5859 58.849 25.2578 58.6042 24.8672 58.4375C24.4818 58.2708 24.0365 58.1875 23.5312 58.1875H20.9844V56.625H23.5312C24.2865 56.625 24.9766 56.7526 25.6016 57.0078C26.2266 57.2578 26.7656 57.6198 27.2188 58.0938C27.6771 58.5677 28.0286 59.1354 28.2734 59.7969C28.5182 60.4583 28.6406 61.1979 28.6406 62.0156V62.6172C28.6406 63.4349 28.5182 64.1745 28.2734 64.8359C28.0286 65.4974 27.6771 66.0651 27.2188 66.5391C26.7604 67.0078 26.2135 67.3698 25.5781 67.625C24.9479 67.875 24.2422 68 23.4609 68ZM22.1172 56.625V68H20.1562V56.625H22.1172ZM39.6797 62V62.625C39.6797 63.4844 39.5677 64.2552 39.3438 64.9375C39.1198 65.6198 38.7995 66.2005 38.3828 66.6797C37.9714 67.1589 37.4766 67.526 36.8984 67.7812C36.3203 68.0312 35.6797 68.1562 34.9766 68.1562C34.2786 68.1562 33.6406 68.0312 33.0625 67.7812C32.4896 67.526 31.9922 67.1589 31.5703 66.6797C31.1484 66.2005 30.8203 65.6198 30.5859 64.9375C30.3568 64.2552 30.2422 63.4844 30.2422 62.625V62C30.2422 61.1406 30.3568 60.3724 30.5859 59.6953C30.8151 59.013 31.138 58.4323 31.5547 57.9531C31.9766 57.4688 32.474 57.1016 33.0469 56.8516C33.625 56.5964 34.263 56.4688 34.9609 56.4688C35.6641 56.4688 36.3047 56.5964 36.8828 56.8516C37.4609 57.1016 37.9583 57.4688 38.375 57.9531C38.7917 58.4323 39.112 59.013 39.3359 59.6953C39.5651 60.3724 39.6797 61.1406 39.6797 62ZM37.7188 62.625V61.9844C37.7188 61.349 37.6562 60.7891 37.5312 60.3047C37.4115 59.8151 37.2318 59.4062 36.9922 59.0781C36.7578 58.7448 36.4688 58.4948 36.125 58.3281C35.7812 58.1562 35.3932 58.0703 34.9609 58.0703C34.5286 58.0703 34.1432 58.1562 33.8047 58.3281C33.4661 58.4948 33.1771 58.7448 32.9375 59.0781C32.7031 59.4062 32.5234 59.8151 32.3984 60.3047C32.2734 60.7891 32.2109 61.349 32.2109 61.9844V62.625C32.2109 63.2604 32.2734 63.8229 32.3984 64.3125C32.5234 64.8021 32.7057 65.2161 32.9453 65.5547C33.1901 65.888 33.4818 66.1406 33.8203 66.3125C34.1589 66.4792 34.5443 66.5625 34.9766 66.5625C35.4141 66.5625 35.8021 66.4792 36.1406 66.3125C36.4792 66.1406 36.7656 65.888 37 65.5547C37.2344 65.2161 37.4115 64.8021 37.5312 64.3125C37.6562 63.8229 37.7188 63.2604 37.7188 62.625ZM48.3594 64.2969H50.3125C50.25 65.0417 50.0417 65.7057 49.6875 66.2891C49.3333 66.8672 48.8359 67.3229 48.1953 67.6562C47.5547 67.9896 46.776 68.1562 45.8594 68.1562C45.1562 68.1562 44.5234 68.0312 43.9609 67.7812C43.3984 67.526 42.9167 67.1667 42.5156 66.7031C42.1146 66.2344 41.8073 65.6693 41.5938 65.0078C41.3854 64.3464 41.2812 63.6068 41.2812 62.7891V61.8438C41.2812 61.026 41.388 60.2865 41.6016 59.625C41.8203 58.9635 42.1328 58.3984 42.5391 57.9297C42.9453 57.4557 43.4323 57.0938 44 56.8438C44.5729 56.5938 45.2161 56.4688 45.9297 56.4688C46.8359 56.4688 47.6016 56.6354 48.2266 56.9688C48.8516 57.3021 49.3359 57.763 49.6797 58.3516C50.0286 58.9401 50.2422 59.6146 50.3203 60.375H48.3672C48.3151 59.8854 48.2005 59.4661 48.0234 59.1172C47.8516 58.7682 47.5964 58.5026 47.2578 58.3203C46.9193 58.1328 46.4766 58.0391 45.9297 58.0391C45.4818 58.0391 45.0911 58.1224 44.7578 58.2891C44.4245 58.4557 44.1458 58.7005 43.9219 59.0234C43.6979 59.3464 43.5286 59.7448 43.4141 60.2188C43.3047 60.6875 43.25 61.224 43.25 61.8281V62.7891C43.25 63.362 43.2995 63.8828 43.3984 64.3516C43.5026 64.8151 43.6589 65.2135 43.8672 65.5469C44.0807 65.8802 44.3516 66.138 44.6797 66.3203C45.0078 66.5026 45.401 66.5938 45.8594 66.5938C46.4167 66.5938 46.8672 66.5052 47.2109 66.3281C47.5599 66.151 47.8229 65.8932 48 65.5547C48.1823 65.2109 48.3021 64.7917 48.3594 64.2969Z" fill="#288DEB"/>
<path fill-rule="evenodd" clip-rule="evenodd" d="M40 0.00195312V22.0004C40 24.2095 41.7909 26.0004 44 26.0004H69.624C69.2368 24.8318 68.5612 23.774 67.6475 22.9423L44.3924 1.77359C43.1728 0.663377 41.6172 0.0370902 40 0.00195312Z" fill="black" fill-opacity="0.24"/>
<defs>
<filter id="filter0_d_688_14398" x="0" y="47" width="65" height="34" filterUnits="userSpaceOnUse" color-interpolation-filters="sRGB">
<feFlood flood-opacity="0" result="BackgroundImageFix"/>
<feColorMatrix in="SourceAlpha" type="matrix" values="0 0 0 0 0 0 0 0 0 0 0 0 0 0 0 0 0 0 127 0" result="hardAlpha"/>
<feOffset dx="2" dy="2"/>
<feGaussianBlur stdDeviation="2"/>
<feComposite in2="hardAlpha" operator="out"/>
<feColorMatrix type="matrix" values="0 0 0 0 0 0 0 0 0 0 0 0 0 0 0 0 0 0 0.25 0"/>
<feBlend mode="normal" in2="BackgroundImageFix" result="effect1_dropShadow_688_14398"/>
<feBlend mode="normal" in="SourceGraphic" in2="effect1_dropShadow_688_14398" result="shape"/>
</filter>
</defs>
</svg>
