<svg width="32" height="30" viewBox="0 0 32 30" fill="none" xmlns="http://www.w3.org/2000/svg">
<path d="M0.25 2.56223C0.25 1.14769 1.42538 0.000976562 2.87528 0.000976562H29.1281C30.578 0.000976562 31.7534 1.14769 31.7534 2.56223V27.443C31.7534 28.8575 30.578 30.0042 29.1281 30.0042H2.87528C1.42538 30.0042 0.25 28.8575 0.25 27.443V2.56223Z" fill="#288DEB"/>
<path d="M8.73359 15.8917L4.65995 22.8751C4.36825 23.3751 4.72895 24.0031 5.30785 24.0031H26.7769C27.3379 24.0031 27.7003 23.4099 27.4444 22.9107L21.1328 10.6031C20.8615 10.0742 20.1122 10.0559 19.8154 10.5709L14.6451 19.5429C14.3902 19.9852 13.7775 20.0492 13.4367 19.6691L9.93998 15.7689C9.6003 15.39 8.98998 15.4522 8.73359 15.8917Z" fill="white"/>
<path d="M11.125 7.50098C11.125 8.95072 9.94975 10.126 8.5 10.126C7.05025 10.126 5.875 8.95072 5.875 7.50098C5.875 6.05123 7.05025 4.87598 8.5 4.87598C9.94975 4.87598 11.125 6.05123 11.125 7.50098Z" fill="white"/>
</svg>
