<svg width="70" height="86" viewBox="0 0 70 86" fill="none" xmlns="http://www.w3.org/2000/svg">
<path d="M8 7.16666C8 3.20862 11.0843 0 14.8889 0H39.856C41.5247 0 43.1366 0.630081 44.3924 1.7732L67.6475 22.9419C69.1425 24.3027 70 26.2687 70 28.3353V78.8333C70 82.7914 66.9157 86 63.1111 86H14.8889C11.0843 86 8 82.7914 8 78.8333V7.16666Z" fill="#EB3528"/>
<g filter="url(#filter0_d_688_14401)">
<rect x="2" y="49" width="57" height="26" rx="4" fill="#FFEBEB"/>
</g>
<path d="M24.4766 63.7578H21.5156V62.2031H24.4766C24.9922 62.2031 25.4089 62.1198 25.7266 61.9531C26.0443 61.7865 26.276 61.5573 26.4219 61.2656C26.5729 60.9688 26.6484 60.6302 26.6484 60.25C26.6484 59.8906 26.5729 59.5547 26.4219 59.2422C26.276 58.9245 26.0443 58.6693 25.7266 58.4766C25.4089 58.2839 24.9922 58.1875 24.4766 58.1875H22.1172V68H20.1562V56.625H24.4766C25.3568 56.625 26.1042 56.7812 26.7188 57.0938C27.3385 57.401 27.8099 57.8281 28.1328 58.375C28.4557 58.9167 28.6172 59.5365 28.6172 60.2344C28.6172 60.9688 28.4557 61.599 28.1328 62.125C27.8099 62.651 27.3385 63.0547 26.7188 63.3359C26.1042 63.6172 25.3568 63.7578 24.4766 63.7578ZM33.6797 68H31.25L31.2656 66.4453H33.6797C34.3828 66.4453 34.9714 66.2917 35.4453 65.9844C35.9245 65.6771 36.2839 65.237 36.5234 64.6641C36.7682 64.0911 36.8906 63.4089 36.8906 62.6172V62C36.8906 61.3854 36.8203 60.8411 36.6797 60.3672C36.5443 59.8932 36.3411 59.4948 36.0703 59.1719C35.8047 58.849 35.4766 58.6042 35.0859 58.4375C34.7005 58.2708 34.2552 58.1875 33.75 58.1875H31.2031V56.625H33.75C34.5052 56.625 35.1953 56.7526 35.8203 57.0078C36.4453 57.2578 36.9844 57.6198 37.4375 58.0938C37.8958 58.5677 38.2474 59.1354 38.4922 59.7969C38.737 60.4583 38.8594 61.1979 38.8594 62.0156V62.6172C38.8594 63.4349 38.737 64.1745 38.4922 64.8359C38.2474 65.4974 37.8958 66.0651 37.4375 66.5391C36.9792 67.0078 36.4323 67.3698 35.7969 67.625C35.1667 67.875 34.4609 68 33.6797 68ZM32.3359 56.625V68H30.375V56.625H32.3359ZM42.7891 56.625V68H40.8281V56.625H42.7891ZM47.4297 61.6016V63.1562H42.2891V61.6016H47.4297ZM48.0781 56.625V58.1875H42.2891V56.625H48.0781Z" fill="#EB3528"/>
<path fill-rule="evenodd" clip-rule="evenodd" d="M40 0.00195312V22.0004C40 24.2095 41.7909 26.0004 44 26.0004H69.624C69.2368 24.8318 68.5612 23.774 67.6475 22.9423L44.3924 1.77359C43.1728 0.663377 41.6172 0.0370902 40 0.00195312Z" fill="black" fill-opacity="0.24"/>
<defs>
<filter id="filter0_d_688_14401" x="0" y="47" width="65" height="34" filterUnits="userSpaceOnUse" color-interpolation-filters="sRGB">
<feFlood flood-opacity="0" result="BackgroundImageFix"/>
<feColorMatrix in="SourceAlpha" type="matrix" values="0 0 0 0 0 0 0 0 0 0 0 0 0 0 0 0 0 0 127 0" result="hardAlpha"/>
<feOffset dx="2" dy="2"/>
<feGaussianBlur stdDeviation="2"/>
<feComposite in2="hardAlpha" operator="out"/>
<feColorMatrix type="matrix" values="0 0 0 0 0 0 0 0 0 0 0 0 0 0 0 0 0 0 0.25 0"/>
<feBlend mode="normal" in2="BackgroundImageFix" result="effect1_dropShadow_688_14401"/>
<feBlend mode="normal" in="SourceGraphic" in2="effect1_dropShadow_688_14401" result="shape"/>
</filter>
</defs>
</svg>
